<svg xmlns="http://www.w3.org/2000/svg" width="40" height="45" viewBox="0 0 40 45"><defs><style>.a{fill:#fff;}</style></defs><path class="a" d="M0,40.781A4.254,4.254,0,0,0,4.286,45H35.714A4.254,4.254,0,0,0,40,40.781V16.875H0ZM28.571,23.555A1.066,1.066,0,0,1,29.643,22.5h3.571a1.066,1.066,0,0,1,1.071,1.055V27.07a1.066,1.066,0,0,1-1.071,1.055H29.643a1.066,1.066,0,0,1-1.071-1.055Zm0,11.25a1.066,1.066,0,0,1,1.071-1.055h3.571A1.066,1.066,0,0,1,34.286,34.8V38.32a1.066,1.066,0,0,1-1.071,1.055H29.643a1.066,1.066,0,0,1-1.071-1.055ZM17.143,23.555A1.066,1.066,0,0,1,18.214,22.5h3.571a1.066,1.066,0,0,1,1.071,1.055V27.07a1.066,1.066,0,0,1-1.071,1.055H18.214a1.066,1.066,0,0,1-1.071-1.055Zm0,11.25a1.066,1.066,0,0,1,1.071-1.055h3.571A1.066,1.066,0,0,1,22.857,34.8V38.32a1.066,1.066,0,0,1-1.071,1.055H18.214a1.066,1.066,0,0,1-1.071-1.055ZM5.714,23.555A1.066,1.066,0,0,1,6.786,22.5h3.571a1.066,1.066,0,0,1,1.071,1.055V27.07a1.066,1.066,0,0,1-1.071,1.055H6.786A1.066,1.066,0,0,1,5.714,27.07Zm0,11.25A1.066,1.066,0,0,1,6.786,33.75h3.571A1.066,1.066,0,0,1,11.429,34.8V38.32a1.066,1.066,0,0,1-1.071,1.055H6.786A1.066,1.066,0,0,1,5.714,38.32Zm30-29.18H31.429V1.406A1.422,1.422,0,0,0,30,0H27.143a1.422,1.422,0,0,0-1.429,1.406V5.625H14.286V1.406A1.422,1.422,0,0,0,12.857,0H10A1.422,1.422,0,0,0,8.571,1.406V5.625H4.286A4.254,4.254,0,0,0,0,9.844v4.219H40V9.844A4.254,4.254,0,0,0,35.714,5.625Z"/></svg>